<svg width="50" height="51" viewBox="0 0 50 51" fill="none" xmlns="http://www.w3.org/2000/svg">
<g clip-path="url(#clip0_72_196)">
<path d="M50.0156 28.6143C49.9141 30.4189 49.1172 32.1143 47.7969 33.3408C46.4766 34.5674 44.7344 35.2471 42.9297 35.2236H25.8984C25.5234 35.2236 25.1641 35.0674 24.8984 34.8018C24.6328 34.5361 24.4844 34.1768 24.4844 33.8018V15.458C24.4688 15.1455 24.5547 14.833 24.7266 14.5674C24.8984 14.3018 25.1406 14.0908 25.4297 13.9658C25.4297 13.9658 27 12.8799 30.2969 12.8799C32.3125 12.8799 34.2891 13.4189 36.0234 14.4502C37.375 15.2471 38.5469 16.3096 39.4688 17.583C40.3906 18.8564 41.0313 20.3018 41.3594 21.833C41.9453 21.6689 42.5547 21.583 43.1641 21.583C44.0781 21.5752 44.9844 21.7549 45.8359 22.1064C46.6875 22.458 47.4375 22.9893 48.0781 23.6455C48.7188 24.3018 49.2188 25.0752 49.5547 25.9346C49.8906 26.7939 50.0469 27.7002 50.0156 28.6143ZM22.3594 16.6221C22.3672 16.5439 22.3594 16.4658 22.3359 16.3955C22.3125 16.3252 22.2734 16.2549 22.2188 16.1924C22.1641 16.1299 22.1016 16.0908 22.0313 16.0596C21.8906 15.9971 21.7188 15.9971 21.5781 16.0596C21.5078 16.0908 21.4453 16.1377 21.3906 16.1924C21.3359 16.2471 21.2969 16.3174 21.2734 16.3955C21.25 16.4736 21.2422 16.5439 21.25 16.6221C20.7813 22.7861 20.4219 28.5674 21.25 34.7158C21.2656 34.8486 21.3281 34.9736 21.4297 35.0674C21.6328 35.2549 21.9609 35.2549 22.1641 35.0674C22.2656 34.9736 22.3281 34.8486 22.3438 34.7158C23.2266 28.5127 22.8594 22.8408 22.3438 16.6221H22.3594ZM18.9219 18.7549C18.9063 18.6143 18.8359 18.4814 18.7344 18.3877C18.6328 18.2939 18.4922 18.2393 18.3438 18.2393C18.1953 18.2393 18.0625 18.2939 17.9531 18.3877C17.8438 18.4814 17.7813 18.6143 17.7656 18.7549C17.1484 24.0596 17.1484 29.4189 17.7656 34.7236C17.7891 34.8643 17.8594 34.9893 17.9609 35.0752C18.0625 35.1611 18.2031 35.2158 18.3359 35.2158C18.4688 35.2158 18.6094 35.1689 18.7109 35.0752C18.8125 34.9814 18.8828 34.8564 18.9063 34.7236C19.5938 29.4268 19.5938 24.0596 18.9141 18.7549H18.9219ZM15.4609 18.2158C15.4453 18.0752 15.3828 17.9502 15.2813 17.8564C15.1797 17.7627 15.0469 17.7158 14.9063 17.7158C14.7656 17.7158 14.6328 17.7705 14.5313 17.8564C14.4297 17.9424 14.3672 18.0752 14.3516 18.2158C13.8281 23.8408 13.5547 29.0986 14.3516 34.708C14.3516 34.8564 14.4063 34.9971 14.5156 35.0986C14.625 35.2002 14.7578 35.2627 14.9063 35.2627C15.0547 35.2627 15.1953 35.208 15.2969 35.0986C15.3984 34.9893 15.4609 34.8564 15.4609 34.708C16.2813 29.0205 16.0313 23.9111 15.4688 18.2158H15.4609ZM12.0234 19.8252C12.0234 19.6768 11.9609 19.5283 11.8594 19.4189C11.7578 19.3096 11.6094 19.2549 11.4531 19.2549C11.2969 19.2549 11.1563 19.3174 11.0469 19.4189C10.9375 19.5205 10.8828 19.6689 10.8828 19.8252C10.25 24.7705 10.25 29.7861 10.8828 34.7314C10.8984 34.8721 10.9609 34.9971 11.0703 35.0908C11.1797 35.1846 11.3125 35.2393 11.4453 35.2393C11.5781 35.2393 11.7188 35.1846 11.8203 35.0908C11.9219 34.9971 11.9922 34.8721 12.0078 34.7314C12.6953 29.7861 12.7031 24.7705 12.0313 19.8252H12.0234ZM8.54688 23.5439C8.54688 23.3955 8.48438 23.2471 8.38282 23.1455C8.28125 23.0439 8.13282 22.9814 7.98438 22.9814C7.83594 22.9814 7.6875 23.0439 7.58594 23.1455C7.48438 23.2471 7.42188 23.3955 7.42188 23.5439C6.60157 27.3877 6.99219 30.8799 7.45313 34.7627C7.47657 34.8877 7.53907 35.0049 7.63282 35.0908C7.72657 35.1768 7.85157 35.2236 7.98438 35.2236C8.11719 35.2236 8.23438 35.1768 8.33594 35.0908C8.4375 35.0049 8.5 34.8955 8.51563 34.7627C9.03125 30.8252 9.42188 27.4111 8.54688 23.5439ZM5.10157 22.958C5.08594 22.8174 5.01563 22.6846 4.91407 22.583C4.8125 22.4814 4.66407 22.4346 4.52344 22.4346C4.38282 22.4346 4.24219 22.4893 4.13282 22.583C4.02344 22.6768 3.96094 22.8096 3.94532 22.958C3.21875 26.8799 3.46094 30.333 3.96875 34.2471C4.02344 34.8408 5.03125 34.833 5.09375 34.2471C5.65625 30.2705 5.91407 26.9189 5.11719 22.958H5.10157ZM1.61719 24.8799C1.60157 24.7393 1.53125 24.6064 1.42969 24.5049C1.32813 24.4033 1.17969 24.3564 1.03907 24.3564C0.898442 24.3564 0.757817 24.4111 0.648442 24.5049C0.539067 24.5986 0.468754 24.7314 0.460942 24.8799C-0.203121 27.5127 4.44055e-06 29.6924 0.507817 32.333C0.523442 32.4658 0.585942 32.5908 0.687504 32.6768C0.789067 32.7627 0.914067 32.8174 1.05469 32.8174C1.19532 32.8174 1.32032 32.7705 1.42188 32.6768C1.52344 32.583 1.58594 32.4658 1.60157 32.333C2.1875 29.6377 2.47657 27.5049 1.63282 24.8799H1.61719Z" fill="#F18888"/>
</g>
<defs>
<clipPath id="clip0_72_196">
<rect width="50" height="50" fill="white" transform="translate(0 0.286133)"/>
</clipPath>
</defs>
</svg>
