<svg width="50" height="51" viewBox="0 0 50 51" fill="none" xmlns="http://www.w3.org/2000/svg">
<path d="M45.4453 14.9814C44.9609 13.1299 43.5078 11.6768 41.6719 11.1846C38.3516 10.2861 25.0078 10.2861 25.0078 10.2861C25.0078 10.2861 11.6641 10.2861 8.33594 11.1846C6.5 11.6768 5.05469 13.1299 4.5625 14.9814C3.67188 18.333 3.67188 25.3174 3.67188 25.3174C3.67188 25.3174 3.67188 32.3018 4.5625 35.6533C5.05469 37.4971 6.5 38.8955 8.33594 39.3877C11.6641 40.2861 25.0078 40.2861 25.0078 40.2861C25.0078 40.2861 38.3516 40.2861 41.6797 39.3877C43.5156 38.8955 44.9609 37.4971 45.4531 35.6533C46.3438 32.3018 46.3438 25.3174 46.3438 25.3174C46.3438 25.3174 46.3438 18.333 45.4531 14.9814H45.4453ZM20.6406 31.6611V18.9736L31.7891 25.3174L20.6406 31.6611Z" fill="#F18888"/>
</svg>
