<svg width="52" height="152" viewBox="0 0 52 152" fill="none" xmlns="http://www.w3.org/2000/svg">
<path opacity="0.23" d="M51 151H1" stroke="#F18888" stroke-miterlimit="10" stroke-linecap="round"/>
<path opacity="0.23" d="M51 138.499H1" stroke="#F18888" stroke-miterlimit="10" stroke-linecap="round"/>
<path opacity="0.23" d="M51 125.999H1" stroke="#F18888" stroke-miterlimit="10" stroke-linecap="round"/>
<path opacity="0.23" d="M51 113.499H1" stroke="#F18888" stroke-miterlimit="10" stroke-linecap="round"/>
<path opacity="0.23" d="M51 100.997H1" stroke="#F18888" stroke-miterlimit="10" stroke-linecap="round"/>
<path opacity="0.23" d="M51 88.4959H1" stroke="#F18888" stroke-miterlimit="10" stroke-linecap="round"/>
<path opacity="0.23" d="M51 75.9963H1" stroke="#F18888" stroke-miterlimit="10" stroke-linecap="round"/>
<path opacity="0.23" d="M51 63.4944H1" stroke="#F18888" stroke-miterlimit="10" stroke-linecap="round"/>
<path opacity="0.23" d="M51 50.9942H1" stroke="#F18888" stroke-miterlimit="10" stroke-linecap="round"/>
<path opacity="0.23" d="M51 38.4936H1" stroke="#F18888" stroke-miterlimit="10" stroke-linecap="round"/>
<path opacity="0.23" d="M51 25.9936H1" stroke="#F18888" stroke-miterlimit="10" stroke-linecap="round"/>
<path opacity="0.23" d="M51 13.5005H1" stroke="#F18888" stroke-miterlimit="10" stroke-linecap="round"/>
<path opacity="0.23" d="M51 1H1" stroke="#F18888" stroke-miterlimit="10" stroke-linecap="round"/>
<path d="M50.9976 151H32.8939" stroke="#F18888" stroke-miterlimit="10" stroke-linecap="round"/>
<path d="M50.9976 138.499H13.2541" stroke="#F18888" stroke-miterlimit="10" stroke-linecap="round"/>
<path d="M50.9976 125.999H9.64372" stroke="#F18888" stroke-miterlimit="10" stroke-linecap="round"/>
<path d="M50.9976 113.499H23.2077" stroke="#F18888" stroke-miterlimit="10" stroke-linecap="round"/>
<path d="M50.9976 100.997H13.7677" stroke="#F18888" stroke-miterlimit="10" stroke-linecap="round"/>
<path d="M50.9976 88.4959H32.9587" stroke="#F18888" stroke-miterlimit="10" stroke-linecap="round"/>
<path d="M50.9976 75.9963H17.9423" stroke="#F18888" stroke-miterlimit="10" stroke-linecap="round"/>
<path d="M50.9976 63.4944H12.1162" stroke="#F18888" stroke-miterlimit="10" stroke-linecap="round"/>
<path d="M50.9976 51.0027H29.0397" stroke="#F18888" stroke-miterlimit="10" stroke-linecap="round"/>
<path d="M50.9976 38.5018H15.3143" stroke="#F18888" stroke-miterlimit="10" stroke-linecap="round"/>
<path d="M50.9976 26.0013H8.64365" stroke="#F18888" stroke-miterlimit="10" stroke-linecap="round"/>
<path d="M50.9976 13.5005H32.0151" stroke="#F18888" stroke-miterlimit="10" stroke-linecap="round"/>
<path d="M50.9976 1H23.8897" stroke="#F18888" stroke-miterlimit="10" stroke-linecap="round"/>
</svg>
