<svg width="50" height="51" viewBox="0 0 50 51" fill="none" xmlns="http://www.w3.org/2000/svg">
<path d="M25.4999 33.5847C29.8069 33.5847 33.2985 30.0932 33.2985 25.7861C33.2985 21.479 29.8069 17.9874 25.4999 17.9874C21.1928 17.9874 17.7012 21.479 17.7012 25.7861C17.7012 30.0932 21.1928 33.5847 25.4999 33.5847Z" fill="#F18888"/>
<path d="M25.5 34.2861C20.8152 34.2861 17 30.4709 17 25.7861C17 21.1013 20.8152 17.2861 25.5 17.2861C30.1848 17.2861 34 21.1013 34 25.7861C34 30.4709 30.1848 34.2861 25.5 34.2861ZM25.5 18.6888C21.5866 18.6888 18.4026 21.8728 18.4026 25.7861C18.4026 29.6995 21.5866 32.8834 25.5 32.8834C29.4134 32.8834 32.5974 29.6995 32.5974 25.7861C32.5974 21.8728 29.4134 18.6888 25.5 18.6888Z" fill="#F18888"/>
<circle cx="25" cy="25.2861" r="23.5" stroke="#F18888" stroke-width="3"/>
</svg>
