<svg width="33" height="33" viewBox="0 0 33 33" fill="none" xmlns="http://www.w3.org/2000/svg">
<path d="M29.6171 1.16571C29.0295 0.578225 28.0794 0.578225 27.4981 1.16571L24.4916 4.16566C24.3416 4.31565 24.2228 4.4969 24.1478 4.6969L23.1852 7.25935L18.341 12.1093C15.522 10.2718 12.1341 10.2218 10.1527 12.2093C9.46511 12.8967 9.02757 13.7467 8.81505 14.6842C8.58378 15.7217 7.62118 16.6029 6.55858 16.6592C4.95842 16.7404 3.47703 17.3279 2.35191 18.4466C-0.44836 21.2466 0.0766916 26.309 3.52078 29.7527C6.96487 33.1964 12.0279 33.7276 14.8281 30.9276C15.947 29.8089 16.5408 28.3214 16.6158 26.7215C16.6721 25.659 17.5534 24.7028 18.591 24.4653C19.5286 24.2528 20.3787 23.809 21.0663 23.1278C23.0539 21.1403 23.0039 17.7591 21.1663 14.9405L26.0167 10.0905L28.5795 9.12806C28.7795 9.05306 28.9608 8.93432 29.1108 8.78432L32.1111 5.78438C32.6986 5.19689 32.6986 4.24691 32.1111 3.66567L29.6171 1.16571ZM13.553 16.7279C15.2094 16.7279 16.5533 18.0716 16.5533 19.7279C16.5533 21.3841 15.2094 22.7278 13.553 22.7278C11.8966 22.7278 10.5527 21.3841 10.5527 19.7279C10.5527 18.0716 11.8966 16.7279 13.553 16.7279Z" fill="#F18888"/>
</svg>
