<svg width="125" height="89" viewBox="0 0 125 89" fill="none" xmlns="http://www.w3.org/2000/svg">
<path d="M46.6656 60.1312C42.5385 56.004 40.2577 50.5013 40.2577 44.6364C40.2577 38.7715 42.5385 33.2687 46.6656 29.1416L49.236 31.7119C45.7967 35.1511 43.878 39.749 43.878 44.6364C43.878 49.5238 45.7967 54.1216 49.236 57.5609L46.6656 60.1312Z" fill="#F18888"/>
<path d="M77.6552 60.1312L75.0848 57.5609C78.5241 54.1216 80.4429 49.5238 80.4429 44.6364C80.4429 39.749 78.5241 35.1511 75.0848 31.7119L77.6552 29.1416C81.7824 33.2687 84.0632 38.7715 84.0632 44.6364C84.0632 50.5013 81.8186 56.004 77.6552 60.1312Z" fill="#F18888"/>
<path d="M32.4378 74.3591C24.5093 66.4306 20.1288 55.8594 20.1288 44.6365C20.1288 33.4135 24.5093 22.8423 32.4378 14.9138L35.0082 17.4843C27.7676 24.7248 23.7491 34.391 23.7491 44.6365C23.7491 54.8819 27.7314 64.5481 35.0082 71.7886L32.4378 74.3591Z" fill="#F18888"/>
<path d="M91.883 74.3591L89.3126 71.7886C96.5532 64.5481 100.572 54.8819 100.572 44.6365C100.572 34.391 96.5894 24.7248 89.3126 17.4843L91.883 14.9138C99.8115 22.8423 104.192 33.4135 104.192 44.6365C104.192 55.8594 99.8115 66.4306 91.883 74.3591Z" fill="#F18888"/>
<path d="M106.111 88.5869L103.54 86.0165C126.348 63.2086 126.348 26.0646 103.54 3.25672L106.111 0.686279C117.841 12.416 124.321 28.0194 124.321 44.6366C124.321 61.2537 117.841 76.8572 106.111 88.5869Z" fill="#F18888"/>
<path d="M18.2101 88.5869C6.48032 76.8572 0 61.2537 0 44.6366C0 28.0194 6.48032 12.416 18.2101 0.686279L20.7805 3.25672C-2.02736 26.0646 -2.02736 63.2086 20.7805 86.0165L18.2101 88.5869Z" fill="#F18888"/>
<path d="M62.8255 47.8014C62.1819 47.8014 61.5383 47.5539 61.0928 47.0589C60.9938 46.9598 60.8948 46.8114 60.7958 46.6629C60.6968 46.5144 60.6472 46.3657 60.5482 46.2172C60.4987 46.0687 60.4492 45.9202 60.3997 45.7717C60.3502 45.6232 60.3502 45.4746 60.3502 45.2766C60.3502 45.0786 60.3502 44.9796 60.3997 44.7816C60.4492 44.6331 60.4987 44.4846 60.5482 44.3361C60.5977 44.1876 60.6968 44.0391 60.7958 43.8906C60.8948 43.7421 60.9938 43.6429 61.0928 43.4944C61.1918 43.3954 61.3403 43.2966 61.4888 43.1976C61.6373 43.0986 61.7859 43.0491 61.9344 42.95C62.0829 42.9005 62.2314 42.8509 62.3799 42.8014C63.172 42.6529 64.0136 42.9003 64.6076 43.4944C64.7067 43.5934 64.8057 43.7421 64.9047 43.8906C65.0037 44.0391 65.0532 44.1876 65.1522 44.3361C65.2017 44.4846 65.2512 44.6331 65.3007 44.7816C65.3502 44.9301 65.3502 45.0786 65.3502 45.2766C65.3502 45.4746 65.3502 45.6232 65.3007 45.7717C65.2512 45.9202 65.2017 46.0687 65.1522 46.2172C65.1027 46.3657 65.0037 46.5144 64.9047 46.6629C64.8057 46.8114 64.7067 46.9103 64.6076 47.0589C64.1126 47.5539 63.469 47.8014 62.8255 47.8014Z" fill="#F18888"/>
</svg>
