<svg width="234" height="70" viewBox="0 0 234 70" fill="none" xmlns="http://www.w3.org/2000/svg">
<g opacity="0.5">
<path opacity="0.99" d="M12 68.4861V1.28613" stroke="#F18888" stroke-width="2" stroke-linecap="round" stroke-linejoin="round"/>
<path opacity="0.99" d="M33 68.4861V1.28613" stroke="#F18888" stroke-width="2" stroke-linecap="round" stroke-linejoin="round"/>
<path opacity="0.99" d="M54 68.4861V1.28613" stroke="#F18888" stroke-width="2" stroke-linecap="round" stroke-linejoin="round"/>
<path opacity="0.99" d="M75 68.4861V1.28613" stroke="#F18888" stroke-width="2" stroke-linecap="round" stroke-linejoin="round"/>
<path opacity="0.99" d="M96 68.4861V1.28613" stroke="#F18888" stroke-width="2" stroke-linecap="round" stroke-linejoin="round"/>
<path opacity="0.99" d="M117 68.4861V1.28613" stroke="#F18888" stroke-width="2" stroke-linecap="round" stroke-linejoin="round"/>
<path opacity="0.99" d="M138 68.4861V1.28613" stroke="#F18888" stroke-width="2" stroke-linecap="round" stroke-linejoin="round"/>
<path opacity="0.99" d="M159 68.4861V1.28613" stroke="#F18888" stroke-width="2" stroke-linecap="round" stroke-linejoin="round"/>
<path opacity="0.99" d="M180 68.4861V1.28613" stroke="#F18888" stroke-width="2" stroke-linecap="round" stroke-linejoin="round"/>
<path opacity="0.99" d="M201 68.4861V1.28613" stroke="#F18888" stroke-width="2" stroke-linecap="round" stroke-linejoin="round"/>
<path opacity="0.99" d="M222 68.4861V1.28613" stroke="#F18888" stroke-width="2" stroke-linecap="round" stroke-linejoin="round"/>
</g>
<ellipse cx="11.7524" cy="34.8859" rx="0.531855" ry="0.53424" fill="white"/>
<path d="M8.49102 38.4509C6.77838 40.2855 5.06573 42.0327 3.35309 43.5548" stroke="white" stroke-width="3" stroke-linecap="round" stroke-linejoin="round"/>
<ellipse cx="1.49993" cy="45.1004" rx="0.531855" ry="0.53424" fill="white"/>
<ellipse cx="22.0015" cy="24.6716" rx="0.531855" ry="0.53424" fill="white"/>
<path d="M18.3822 27.8636C16.7097 29.4798 15.0372 31.2673 13.3647 33.0985" stroke="white" stroke-width="3" stroke-linecap="round" stroke-linejoin="round"/>
<ellipse cx="11.7524" cy="34.8859" rx="0.531855" ry="0.53424" fill="white"/>
<ellipse cx="32.2539" cy="20.4413" rx="0.531855" ry="0.53424" fill="white"/>
<path d="M26.7915 21.7013C25.9344 22.0914 25.1051 22.5404 24.3095 23.0453" stroke="white" stroke-width="3" stroke-linecap="round" stroke-linejoin="round"/>
<ellipse cx="22.0015" cy="24.6716" rx="0.531855" ry="0.53424" fill="white"/>
<ellipse cx="42.503" cy="24.6716" rx="0.531855" ry="0.53424" fill="white"/>
<path d="M37.713 21.7014C36.8519 21.3105 35.9559 21.0022 35.037 20.7808" stroke="white" stroke-width="3" stroke-linecap="round" stroke-linejoin="round"/>
<ellipse cx="32.2539" cy="20.4413" rx="0.531855" ry="0.53424" fill="white"/>
<ellipse cx="52.7554" cy="34.8859" rx="0.531855" ry="0.53424" fill="white"/>
<path d="M49.494 31.321C47.7814 29.4864 46.0687 27.7392 44.3561 26.2172" stroke="white" stroke-width="3" stroke-linecap="round" stroke-linejoin="round"/>
<ellipse cx="42.503" cy="24.6716" rx="0.531855" ry="0.53424" fill="white"/>
<ellipse cx="63.0045" cy="45.1004" rx="0.531855" ry="0.53424" fill="white"/>
<path d="M59.3852 41.9083C57.7127 40.2922 56.0402 38.5047 54.3677 36.6735" stroke="white" stroke-width="3" stroke-linecap="round" stroke-linejoin="round"/>
<ellipse cx="52.7554" cy="34.8859" rx="0.531855" ry="0.53424" fill="white"/>
<ellipse cx="73.257" cy="49.3306" rx="0.531855" ry="0.53424" fill="white"/>
<path d="M67.7945 48.0707C66.9374 47.6806 66.1081 47.2315 65.3126 46.7267" stroke="white" stroke-width="3" stroke-linecap="round" stroke-linejoin="round"/>
<ellipse cx="63.0045" cy="45.1004" rx="0.531855" ry="0.53424" fill="white"/>
<ellipse cx="83.506" cy="45.1004" rx="0.531855" ry="0.53424" fill="white"/>
<path d="M78.7159 48.0707C77.8548 48.4616 76.9588 48.7699 76.0399 48.9913" stroke="white" stroke-width="3" stroke-linecap="round" stroke-linejoin="round"/>
<ellipse cx="73.257" cy="49.3306" rx="0.531855" ry="0.53424" fill="white"/>
<ellipse cx="93.7584" cy="34.8859" rx="0.531855" ry="0.53424" fill="white"/>
<path d="M90.497 38.4509C88.7844 40.2855 87.0717 42.0327 85.3591 43.5548" stroke="white" stroke-width="3" stroke-linecap="round" stroke-linejoin="round"/>
<ellipse cx="83.506" cy="45.1004" rx="0.531855" ry="0.53424" fill="white"/>
<ellipse cx="104.007" cy="24.6716" rx="0.531855" ry="0.53424" fill="white"/>
<path d="M100.388 27.8636C98.7157 29.4798 97.0432 31.2673 95.3707 33.0985" stroke="white" stroke-width="3" stroke-linecap="round" stroke-linejoin="round"/>
<ellipse cx="93.7584" cy="34.8859" rx="0.531855" ry="0.53424" fill="white"/>
<ellipse cx="114.26" cy="20.4413" rx="0.531855" ry="0.53424" fill="white"/>
<path d="M108.798 21.7013C107.94 22.0914 107.111 22.5404 106.316 23.0453" stroke="white" stroke-width="3" stroke-linecap="round" stroke-linejoin="round"/>
<ellipse cx="104.007" cy="24.6716" rx="0.531855" ry="0.53424" fill="white"/>
<ellipse cx="124.509" cy="24.6716" rx="0.531855" ry="0.53424" fill="white"/>
<path d="M119.719 21.7014C118.858 21.3108 117.962 21.0026 117.043 20.7808" stroke="white" stroke-width="3" stroke-linecap="round" stroke-linejoin="round"/>
<ellipse cx="114.26" cy="20.4413" rx="0.531855" ry="0.53424" fill="white"/>
<ellipse cx="134.761" cy="34.8859" rx="0.531855" ry="0.53424" fill="white"/>
<path d="M131.5 31.321C129.787 29.4864 128.075 27.7392 126.362 26.2172" stroke="white" stroke-width="3" stroke-linecap="round" stroke-linejoin="round"/>
<ellipse cx="124.509" cy="24.6716" rx="0.531855" ry="0.53424" fill="white"/>
<ellipse cx="145.01" cy="45.1004" rx="0.531855" ry="0.53424" fill="white"/>
<path d="M141.391 41.9083C139.719 40.2922 138.046 38.5047 136.374 36.6735" stroke="white" stroke-width="3" stroke-linecap="round" stroke-linejoin="round"/>
<ellipse cx="134.761" cy="34.8859" rx="0.531855" ry="0.53424" fill="white"/>
<ellipse cx="155.263" cy="49.3306" rx="0.531855" ry="0.53424" fill="white"/>
<path d="M149.801 48.0707C148.944 47.6799 148.115 47.2309 147.319 46.7267" stroke="white" stroke-width="3" stroke-linecap="round" stroke-linejoin="round"/>
<ellipse cx="145.01" cy="45.1004" rx="0.531855" ry="0.53424" fill="white"/>
<ellipse cx="165.512" cy="45.1004" rx="0.531855" ry="0.53424" fill="white"/>
<path d="M160.722 48.0707C159.861 48.4618 158.965 48.7701 158.046 48.9913" stroke="white" stroke-width="3" stroke-linecap="round" stroke-linejoin="round"/>
<ellipse cx="155.263" cy="49.3306" rx="0.531855" ry="0.53424" fill="white"/>
<ellipse cx="175.764" cy="34.8859" rx="0.531855" ry="0.53424" fill="white"/>
<path d="M172.503 38.4509C170.79 40.2855 169.078 42.0327 167.365 43.5548" stroke="white" stroke-width="3" stroke-linecap="round" stroke-linejoin="round"/>
<ellipse cx="165.512" cy="45.1004" rx="0.531855" ry="0.53424" fill="white"/>
<ellipse cx="186.014" cy="24.6716" rx="0.531855" ry="0.53424" fill="white"/>
<path d="M182.394 27.8636C180.722 29.4798 179.049 31.2673 177.377 33.0985" stroke="white" stroke-width="3" stroke-linecap="round" stroke-linejoin="round"/>
<ellipse cx="175.764" cy="34.8859" rx="0.531855" ry="0.53424" fill="white"/>
<ellipse cx="196.266" cy="20.4413" rx="0.531855" ry="0.53424" fill="white"/>
<path d="M190.804 21.7013C189.947 22.0921 189.117 22.5411 188.322 23.0453" stroke="white" stroke-width="3" stroke-linecap="round" stroke-linejoin="round"/>
<ellipse cx="186.014" cy="24.6716" rx="0.531855" ry="0.53424" fill="white"/>
<ellipse cx="206.515" cy="24.6716" rx="0.531855" ry="0.53424" fill="white"/>
<path d="M201.725 21.7014C200.864 21.3103 199.968 21.002 199.049 20.7808" stroke="white" stroke-width="3" stroke-linecap="round" stroke-linejoin="round"/>
<ellipse cx="196.266" cy="20.4413" rx="0.531855" ry="0.53424" fill="white"/>
<ellipse cx="216.767" cy="34.8859" rx="0.531855" ry="0.53424" fill="white"/>
<path d="M213.506 31.321C211.793 29.4864 210.081 27.7392 208.368 26.2172" stroke="white" stroke-width="3" stroke-linecap="round" stroke-linejoin="round"/>
<ellipse cx="206.515" cy="24.6716" rx="0.531855" ry="0.53424" fill="white"/>
<ellipse cx="227.017" cy="45.1004" rx="0.531855" ry="0.53424" fill="white"/>
<path d="M223.397 41.9083C221.725 40.2922 220.052 38.5047 218.38 36.6735" stroke="white" stroke-width="3" stroke-linecap="round" stroke-linejoin="round"/>
<ellipse cx="216.767" cy="34.8859" rx="0.531855" ry="0.53424" fill="white"/>
<path d="M231.81 48.0707C230.952 47.6806 230.121 47.2316 229.325 46.7267" stroke="white" stroke-width="3" stroke-linecap="round" stroke-linejoin="round"/>
<ellipse cx="227.017" cy="45.1004" rx="0.531855" ry="0.53424" fill="white"/>
</svg>
