<svg width="95" height="96" viewBox="0 0 95 96" fill="none" xmlns="http://www.w3.org/2000/svg">
<path d="M64.2578 64.2861H30.774V31.0837H64.2578V64.2861ZM33.5113 61.5444H61.4651V33.8255H33.5113V61.5444Z" fill="white"/>
<path d="M1.41016 3.10217C1.32721 3.10217 1.21661 3.10228 1.13366 3.07463C1.05071 3.04698 0.967723 3.01938 0.884775 2.99173C0.801826 2.96408 0.718904 2.90878 0.635955 2.85348C0.553006 2.79818 0.497693 2.74272 0.414744 2.68742C0.359445 2.63212 0.304186 2.54923 0.248887 2.46628C0.193588 2.38333 0.165938 2.30027 0.110639 2.21733C0.0829894 2.13438 0.0553263 2.05159 0.0276766 1.96864C2.70012e-05 1.88569 0 1.80274 0 1.69214C0 1.6092 2.70012e-05 1.4986 0.0276766 1.41565C0.0553263 1.3327 0.0829894 1.24964 0.110639 1.16669C0.138289 1.08374 0.193588 1.00096 0.248887 0.918009C0.304186 0.83506 0.359445 0.779545 0.414744 0.696596C0.470044 0.641297 0.553006 0.586105 0.635955 0.530806C0.718904 0.475507 0.801826 0.447857 0.884775 0.392558C0.967723 0.364908 1.05071 0.337313 1.13366 0.309663C1.57606 0.226714 2.07375 0.3648 2.37789 0.696596C2.43319 0.751895 2.48845 0.83506 2.54375 0.918009C2.59905 1.00096 2.6267 1.08374 2.682 1.16669C2.70965 1.24964 2.73731 1.3327 2.76496 1.41565C2.79261 1.4986 2.79264 1.6092 2.79264 1.69214C2.79264 1.77509 2.79261 1.88569 2.76496 1.96864C2.73731 2.05159 2.70965 2.13438 2.682 2.21733C2.65435 2.30027 2.59905 2.38333 2.54375 2.46628C2.48845 2.54923 2.43319 2.60447 2.37789 2.68742C2.3226 2.74272 2.23963 2.79818 2.15668 2.85348C2.07374 2.90878 1.99081 2.93643 1.90786 2.99173C1.82492 3.01938 1.74193 3.04698 1.65898 3.07463C1.60368 3.10228 1.52076 3.10217 1.41016 3.10217Z" fill="white"/>
<path d="M32.1566 3.10217C32.0736 3.10217 31.963 3.10228 31.8801 3.07463C31.7971 3.04698 31.7142 3.01938 31.6312 2.99173C31.5483 2.96408 31.4653 2.90878 31.3824 2.85348C31.2994 2.79818 31.2441 2.74272 31.1611 2.68742C31.1058 2.63212 31.0506 2.54923 30.9953 2.46628C30.94 2.38333 30.9123 2.30027 30.857 2.21733C30.8294 2.13438 30.8017 2.05159 30.7741 1.96864C30.7464 1.88569 30.7464 1.80274 30.7464 1.69214C30.7464 1.6092 30.7464 1.4986 30.7741 1.41565C30.8017 1.3327 30.8294 1.24964 30.857 1.16669C30.8847 1.08374 30.94 1.00096 30.9953 0.918009C31.0506 0.83506 31.1058 0.779545 31.1611 0.696596C31.2164 0.641297 31.2994 0.586105 31.3824 0.530806C31.4653 0.475507 31.5483 0.447857 31.6312 0.392558C31.7142 0.364908 31.7971 0.337313 31.8801 0.309663C32.3225 0.226714 32.7925 0.3648 33.1243 0.696596C33.1796 0.751895 33.2349 0.83506 33.2902 0.918009C33.3455 1.00096 33.3732 1.08374 33.4285 1.16669C33.4561 1.24964 33.4837 1.3327 33.5114 1.41565C33.539 1.4986 33.539 1.6092 33.539 1.69214C33.539 1.77509 33.539 1.88569 33.5114 1.96864C33.4837 2.05159 33.4561 2.13438 33.4285 2.21733C33.4008 2.30027 33.3455 2.38333 33.2902 2.46628C33.2349 2.54923 33.1796 2.60447 33.1243 2.68742C33.069 2.74272 32.986 2.79818 32.9031 2.85348C32.8201 2.90878 32.7372 2.93643 32.6543 2.99173C32.5713 3.01938 32.4883 3.04698 32.4054 3.07463C32.3224 3.10228 32.2395 3.10217 32.1566 3.10217Z" fill="white"/>
<path d="M62.8752 3.10217C62.7923 3.10217 62.6817 3.10228 62.5987 3.07463C62.5158 3.04698 62.4328 3.01938 62.3499 2.99173C62.2669 2.96408 62.184 2.90878 62.101 2.85348C62.0181 2.79818 61.9628 2.74272 61.8798 2.68742C61.8245 2.63212 61.7692 2.54923 61.7139 2.46628C61.6586 2.38333 61.631 2.30027 61.5757 2.21733C61.548 2.13438 61.5204 2.05159 61.4928 1.96864C61.4651 1.88569 61.4651 1.80274 61.4651 1.69214C61.4651 1.6092 61.4651 1.4986 61.4928 1.41565C61.5204 1.3327 61.548 1.24964 61.5757 1.16669C61.6033 1.08374 61.6586 1.00096 61.7139 0.918009C61.7692 0.83506 61.8245 0.779545 61.8798 0.696596C61.9351 0.641297 62.0181 0.586105 62.101 0.530806C62.184 0.475507 62.2669 0.447857 62.3499 0.392558C62.4328 0.364908 62.5158 0.337313 62.5987 0.309663C63.0411 0.226714 63.5112 0.3648 63.843 0.696596C63.8983 0.751895 63.9535 0.83506 64.0088 0.918009C64.0641 1.00096 64.0918 1.08374 64.1471 1.16669C64.1747 1.24964 64.2024 1.3327 64.2301 1.41565C64.2577 1.4986 64.2577 1.6092 64.2577 1.69214C64.2577 1.77509 64.2577 1.88569 64.2301 1.96864C64.2024 2.05159 64.1747 2.13438 64.1471 2.21733C64.1194 2.30027 64.0641 2.38333 64.0088 2.46628C63.9535 2.54923 63.8983 2.60447 63.843 2.68742C63.7877 2.74272 63.7047 2.79818 63.6218 2.85348C63.5388 2.90878 63.4558 2.93643 63.3729 2.99173C63.2899 3.01938 63.207 3.04698 63.1241 3.07463C63.0411 3.10228 62.9582 3.10217 62.8752 3.10217Z" fill="white"/>
<path d="M93.5939 3.10206C93.511 3.10206 93.4004 3.10217 93.3174 3.07452C93.2345 3.04687 93.1516 3.01927 93.0686 2.99162C92.9857 2.96397 92.9027 2.90867 92.8197 2.85337C92.7368 2.79808 92.6815 2.74261 92.5986 2.68732C92.5433 2.63202 92.488 2.54912 92.4327 2.46617C92.3774 2.38322 92.3497 2.30017 92.2944 2.21722C92.2668 2.13427 92.2391 2.05148 92.2114 1.96853C92.1838 1.88558 92.1838 1.80264 92.1838 1.69204C92.1838 1.60909 92.1838 1.49849 92.2114 1.41554C92.2391 1.33259 92.2668 1.24953 92.2944 1.16659C92.3221 1.08364 92.3774 1.00085 92.4327 0.917901C92.488 0.834952 92.5433 0.779437 92.5986 0.696488C92.6539 0.641189 92.7368 0.585998 92.8197 0.530699C92.9027 0.475399 92.9857 0.44775 93.0686 0.39245C93.1516 0.364801 93.2345 0.337205 93.3174 0.309556C93.4833 0.281906 93.6769 0.281906 93.8704 0.309556C93.9534 0.337205 94.0364 0.364801 94.1193 0.39245C94.2023 0.4201 94.2852 0.475399 94.3681 0.530699C94.4511 0.585998 94.5064 0.641189 94.5893 0.696488C94.6446 0.751788 94.6999 0.834952 94.7552 0.917901C94.8105 1.00085 94.8381 1.08364 94.8934 1.16659C94.9211 1.24953 94.9488 1.33259 94.9764 1.41554C95.0041 1.49849 95.0041 1.60909 95.0041 1.69204C95.0041 1.77499 95.0041 1.88558 94.9764 1.96853C94.9488 2.05148 94.9211 2.13427 94.8934 2.21722C94.8658 2.30017 94.8105 2.38322 94.7552 2.46617C94.6999 2.54912 94.6446 2.60437 94.5893 2.68732C94.534 2.74261 94.4511 2.79808 94.3681 2.85337C94.2852 2.90867 94.2023 2.93632 94.1193 2.99162C94.0364 3.01927 93.9534 3.04687 93.8704 3.07452C93.7598 3.10217 93.6769 3.10206 93.5939 3.10206Z" fill="white"/>
<path d="M93.594 33.8212C93.2346 33.8212 92.8751 33.683 92.6263 33.4065C92.3774 33.1576 92.2115 32.7982 92.2115 32.4387C92.2115 32.3558 92.2116 32.2452 92.2392 32.1622C92.2669 32.0793 92.2945 31.9962 92.3222 31.9133C92.3498 31.8303 92.4051 31.7473 92.4604 31.6643C92.5157 31.5814 92.571 31.5261 92.6263 31.4432C92.9581 31.1114 93.4281 30.9733 93.8705 31.0562C93.9535 31.0839 94.0365 31.1115 94.1194 31.1391C94.2024 31.1668 94.2853 31.2221 94.3682 31.2774C94.4512 31.3327 94.5065 31.3879 94.5894 31.4432C94.6447 31.4985 94.7 31.5814 94.7553 31.6643C94.8106 31.7473 94.8382 31.8303 94.8935 31.9133C94.9212 31.9962 94.9489 32.0793 94.9765 32.1622C95.0042 32.2452 95.0042 32.3558 95.0042 32.4387C95.0042 32.7982 94.8659 33.1576 94.5894 33.4065C94.5341 33.4618 94.4512 33.517 94.3682 33.5723C94.2853 33.6276 94.2024 33.6552 94.1194 33.7105C94.0365 33.7382 93.9535 33.7657 93.8705 33.7934C93.7599 33.821 93.677 33.8212 93.594 33.8212Z" fill="white"/>
<path d="M93.5939 64.5397C93.511 64.5397 93.4004 64.5398 93.3174 64.5122C93.2345 64.4845 93.1516 64.4567 93.0686 64.429C92.9857 64.4014 92.9027 64.3461 92.8197 64.2908C92.7368 64.2355 92.6815 64.1803 92.5986 64.125C92.3497 63.8761 92.1838 63.5167 92.1838 63.1573C92.1838 62.7978 92.3221 62.4384 92.5986 62.1895C92.9304 61.8577 93.4004 61.7194 93.8428 61.8023C93.9258 61.83 94.0087 61.8578 94.0916 61.8855C94.1746 61.9131 94.2575 61.9684 94.3405 62.0237C94.4234 62.079 94.4787 62.1342 94.5617 62.1895C94.8105 62.4384 94.9764 62.7978 94.9764 63.1573C94.9764 63.5167 94.8382 63.8761 94.5617 64.125C94.5064 64.1803 94.4234 64.2355 94.3405 64.2908C94.2575 64.3461 94.1746 64.3737 94.0916 64.429C94.0087 64.4567 93.9258 64.4845 93.8428 64.5122C93.7599 64.5398 93.6769 64.5397 93.5939 64.5397Z" fill="white"/>
<path d="M93.5939 95.2861C93.511 95.2861 93.4004 95.2859 93.3174 95.2582C93.2345 95.2306 93.1516 95.203 93.0686 95.1753C92.9857 95.1477 92.9027 95.0924 92.8197 95.0371C92.7368 94.9818 92.6815 94.9266 92.5986 94.8713C92.3497 94.6225 92.1838 94.263 92.1838 93.9036C92.1838 93.8206 92.1838 93.71 92.2114 93.6271C92.2391 93.5441 92.2668 93.4611 92.2944 93.3781C92.3221 93.2952 92.3774 93.2124 92.4327 93.1294C92.488 93.0465 92.5433 92.991 92.5986 92.908C92.6539 92.8527 92.7368 92.7975 92.8197 92.7422C92.9027 92.6869 92.9857 92.6593 93.0686 92.604C93.1516 92.5763 93.2345 92.5487 93.3174 92.5211C93.7598 92.4381 94.2575 92.5762 94.5617 92.908C94.617 92.9633 94.6723 93.0465 94.7276 93.1294C94.7829 93.2124 94.8105 93.2952 94.8658 93.3781C94.8935 93.4611 94.9212 93.5441 94.9488 93.6271C94.9765 93.71 94.9764 93.8206 94.9764 93.9036C94.9764 93.9865 94.9765 94.0695 94.9488 94.1801C94.9212 94.263 94.8935 94.3458 94.8658 94.4288C94.8382 94.5117 94.7829 94.5948 94.7276 94.6777C94.6723 94.7607 94.617 94.8159 94.5617 94.8988C94.3128 95.12 93.9534 95.2861 93.5939 95.2861Z" fill="white"/>
<path d="M62.8754 95.2861C62.516 95.2861 62.1565 95.1478 61.9077 94.8713C61.6588 94.6225 61.4929 94.263 61.4929 93.9036C61.4929 93.8206 61.4929 93.71 61.5205 93.6271C61.5482 93.5441 61.5758 93.4611 61.6035 93.3781C61.6311 93.2952 61.6864 93.2124 61.7417 93.1294C61.797 93.0465 61.8524 92.991 61.9077 92.908C62.2395 92.5762 62.7095 92.4381 63.1519 92.5211C63.2348 92.5487 63.3178 92.5763 63.4007 92.604C63.4837 92.6316 63.5666 92.6869 63.6495 92.7422C63.7325 92.7975 63.7878 92.8527 63.8707 92.908C63.926 92.9633 63.9814 93.0465 64.0367 93.1294C64.092 93.2124 64.1196 93.2952 64.1749 93.3781C64.2026 93.4611 64.2302 93.5441 64.2579 93.6271C64.2855 93.71 64.2855 93.8206 64.2855 93.9036C64.2855 94.263 64.1472 94.6225 63.8707 94.8713C63.8154 94.9266 63.7325 94.9818 63.6495 95.0371C63.5666 95.0924 63.4837 95.12 63.4007 95.1753C63.3178 95.203 63.2348 95.2306 63.1519 95.2582C63.0413 95.2582 62.9584 95.2861 62.8754 95.2861Z" fill="white"/>
<path d="M32.1289 95.2861C32.046 95.2861 31.963 95.2859 31.8524 95.2582C31.7695 95.2306 31.6865 95.203 31.6036 95.1753C31.5206 95.1477 31.4377 95.0924 31.3548 95.0371C31.2718 94.9818 31.2165 94.9266 31.1336 94.8713C30.8847 94.6225 30.7188 94.263 30.7188 93.9036C30.7188 93.8206 30.7188 93.71 30.7464 93.6271C30.7741 93.5441 30.8017 93.4611 30.8294 93.3781C30.857 93.2952 30.9123 93.2124 30.9676 93.1294C31.0229 93.0465 31.0783 92.991 31.1336 92.908C31.1889 92.8527 31.2718 92.7975 31.3548 92.7422C31.4377 92.6869 31.5206 92.6593 31.6036 92.604C31.6865 92.5763 31.7695 92.5487 31.8524 92.5211C32.2948 92.4381 32.7648 92.5762 33.0966 92.908C33.1519 92.9633 33.2073 93.0465 33.2626 93.1294C33.3179 93.2124 33.3455 93.2952 33.4008 93.3781C33.4285 93.4611 33.4561 93.5441 33.4838 93.6271C33.5114 93.71 33.5114 93.8206 33.5114 93.9036C33.5114 93.9865 33.5114 94.0695 33.4838 94.1801C33.4561 94.263 33.4285 94.3458 33.4008 94.4288C33.3732 94.5117 33.3179 94.5948 33.2626 94.6777C33.2073 94.7607 33.1519 94.8159 33.0966 94.8988C32.8478 95.12 32.516 95.2861 32.1289 95.2861Z" fill="white"/>
<path d="M1.41019 95.2862C1.05075 95.2862 0.691301 95.1479 0.442454 94.8714C0.193608 94.6226 0.02771 94.2632 0.02771 93.9037C0.02771 93.8208 0.0276695 93.7102 0.0553191 93.6272C0.0829687 93.5443 0.110632 93.4612 0.138281 93.3783C0.165931 93.2953 0.22123 93.2125 0.27653 93.1296C0.331829 93.0466 0.387155 92.9911 0.442454 92.9082C0.497754 92.8529 0.580716 92.7977 0.663665 92.7424C0.746614 92.6871 0.829536 92.6594 0.912484 92.6041C0.995433 92.5488 1.07836 92.5489 1.1613 92.5212C1.3272 92.4936 1.52075 92.4936 1.7143 92.5212C1.79725 92.5489 1.88023 92.5765 1.96318 92.6041C2.04613 92.6318 2.12905 92.6871 2.212 92.7424C2.29495 92.7977 2.35027 92.8529 2.43321 92.9082C2.48851 92.9635 2.54384 93.0466 2.59914 93.1296C2.65444 93.2125 2.68209 93.2953 2.73739 93.3783C2.76504 93.4612 2.79263 93.5443 2.82028 93.6272C2.84793 93.7102 2.84796 93.8208 2.84796 93.9037C2.84796 94.2632 2.70971 94.6226 2.43321 94.8714C2.37791 94.9267 2.29495 94.9819 2.212 95.0372C2.12905 95.0925 2.04613 95.1202 1.96318 95.1755C1.88023 95.2031 1.79725 95.2307 1.7143 95.2584C1.6037 95.2584 1.52079 95.2862 1.41019 95.2862Z" fill="white"/>
<path d="M1.41016 64.5397C1.32721 64.5397 1.21661 64.5398 1.13366 64.5122C1.05071 64.4845 0.967723 64.4567 0.884775 64.429C0.801826 64.4014 0.718904 64.3461 0.635955 64.2908C0.553006 64.2355 0.497693 64.1803 0.414744 64.125C0.165898 63.8761 0 63.5167 0 63.1573C0 62.7978 0.138248 62.4384 0.414744 62.1895C0.74654 61.8577 1.21658 61.7194 1.65898 61.8023C1.74193 61.83 1.82492 61.8578 1.90786 61.8855C1.99081 61.9131 2.07374 61.9684 2.15668 62.0237C2.23963 62.079 2.29495 62.1342 2.37789 62.1895C2.62674 62.4384 2.79264 62.7978 2.79264 63.1573C2.79264 63.5167 2.65439 63.8761 2.37789 64.125C2.3226 64.1803 2.23963 64.2355 2.15668 64.2908C2.07374 64.3461 1.99081 64.3737 1.90786 64.429C1.82492 64.4567 1.74193 64.4845 1.65898 64.5122C1.60368 64.5398 1.52076 64.5397 1.41016 64.5397Z" fill="white"/>
<path d="M1.41016 33.8212C1.32721 33.8212 1.21661 33.821 1.13366 33.7934C1.05071 33.7657 0.967723 33.7382 0.884775 33.7105C0.801826 33.6829 0.718904 33.6276 0.635955 33.5723C0.553006 33.517 0.497693 33.4618 0.414744 33.4065C0.165898 33.1576 0 32.7982 0 32.4387C0 32.3558 2.70012e-05 32.2452 0.0276766 32.1622C0.0553263 32.0793 0.0829894 31.9962 0.110639 31.9133C0.138289 31.8303 0.193588 31.7473 0.248887 31.6643C0.304186 31.5814 0.359445 31.5261 0.414744 31.4432C0.470044 31.3879 0.553006 31.3327 0.635955 31.2774C0.718904 31.2221 0.801826 31.1944 0.884775 31.1391C0.967723 31.1115 1.05071 31.0839 1.13366 31.0562C1.57606 30.9733 2.07375 31.1114 2.37789 31.4432C2.43319 31.4985 2.48845 31.5814 2.54375 31.6643C2.59905 31.7473 2.6267 31.8303 2.682 31.9133C2.70965 31.9962 2.73731 32.0793 2.76496 32.1622C2.79261 32.2452 2.79264 32.3558 2.79264 32.4387C2.79264 32.7982 2.65439 33.1576 2.37789 33.4065C2.12905 33.683 1.7696 33.8212 1.41016 33.8212Z" fill="white"/>
</svg>
