<svg width="1440" height="229" viewBox="0 0 1440 229" fill="none" xmlns="http://www.w3.org/2000/svg">
<g clip-path="url(#clip0_45_131)">
<path opacity="0.06" d="M55.6 0.286133H14.3V41.5861H55.6V0.286133Z" fill="white"/>
<path opacity="0.25" d="M117.9 0.286133H76.6V41.5861H117.9V0.286133Z" fill="white"/>
<path opacity="0.1" d="M180.2 0.286133H138.9V41.5861H180.2V0.286133Z" fill="white"/>
<path opacity="0.02" d="M242.5 0.286133H201.2V41.5861H242.5V0.286133Z" fill="white"/>
<path opacity="0.43" d="M304.8 0.286133H263.5V41.5861H304.8V0.286133Z" fill="white"/>
<path opacity="0.43" d="M617.3 124.886H576V166.186H617.3V124.886Z" fill="white"/>
<path opacity="0.07" d="M367.1 0.286133H325.8V41.5861H367.1V0.286133Z" fill="white"/>
<path opacity="0.22" d="M429.4 0.286133H388.1V41.5861H429.4V0.286133Z" fill="white"/>
<path opacity="0.12" d="M491.7 0.286133H450.4V41.5861H491.7V0.286133Z" fill="white"/>
<path opacity="0.48" d="M554 0.286133H512.7V41.5861H554V0.286133Z" fill="white"/>
<path d="M616.3 0.286133H575V41.5861H616.3V0.286133Z" fill="white"/>
<path opacity="0.05" d="M678.6 0.286133H637.3V41.5861H678.6V0.286133Z" fill="white"/>
<path opacity="0.07" d="M740.9 0.286133H699.6V41.5861H740.9V0.286133Z" fill="white"/>
<path opacity="0.07" d="M1052.3 124.886H1011V166.186H1052.3V124.886Z" fill="white"/>
<path opacity="0.48" d="M803.2 0.286133H761.9V41.5861H803.2V0.286133Z" fill="white"/>
<path opacity="0.21" d="M865.5 0.286133H824.2V41.5861H865.5V0.286133Z" fill="white"/>
<path opacity="0.34" d="M928.3 0.286133H887V41.5861H928.3V0.286133Z" fill="white"/>
<path opacity="0.02" d="M990.1 0.286133H948.8V41.5861H990.1V0.286133Z" fill="white"/>
<path opacity="0.19" d="M1052.3 0.286133H1011V41.5861H1052.3V0.286133Z" fill="white"/>
<path opacity="0.32" d="M1114.7 0.286133H1073.4V41.5861H1114.7V0.286133Z" fill="white"/>
<path opacity="0.02" d="M1177 0.286133H1135.7V41.5861H1177V0.286133Z" fill="white"/>
<path opacity="0.24" d="M1239.3 0.286133H1198V41.5861H1239.3V0.286133Z" fill="white"/>
<path d="M1301.6 0.286133H1260.3V41.5861H1301.6V0.286133Z" fill="#F18888"/>
<path opacity="0.25" d="M1364.3 0.286133H1323V41.5861H1364.3V0.286133Z" fill="white"/>
<path opacity="0.13" d="M1426.2 0.286133H1384.9V41.5861H1426.2V0.286133Z" fill="white"/>
<path d="M55.6 62.5859H14.2999V103.886H55.6V62.5859Z" fill="#F18888"/>
<path opacity="0.49" d="M117.9 62.5859H76.6V103.886H117.9V62.5859Z" fill="white"/>
<path opacity="0.48" d="M180.2 62.5859H138.9V103.886H180.2V62.5859Z" fill="white"/>
<path opacity="0.06" d="M242.5 62.5859H201.2V103.886H242.5V62.5859Z" fill="white"/>
<path opacity="0.21" d="M304.8 62.5859H263.5V103.886H304.8V62.5859Z" fill="white"/>
<path opacity="0.21" d="M55.3 124.886H14V166.186H55.3V124.886Z" fill="white"/>
<path opacity="0.21" d="M367.1 62.5859H325.8V103.886H367.1V62.5859Z" fill="white"/>
<path opacity="0.12" d="M429.4 62.5859H388.1V103.886H429.4V62.5859Z" fill="white"/>
<path opacity="0.07" d="M491.7 62.5859H450.4V103.886H491.7V62.5859Z" fill="white"/>
<path d="M554 62.5859H512.7V103.886H554V62.5859Z" fill="#F18888"/>
<path opacity="0.02" d="M616.3 62.5859H575V103.886H616.3V62.5859Z" fill="white"/>
<path opacity="0.32" d="M678.6 62.5859H637.3V103.886H678.6V62.5859Z" fill="white"/>
<path opacity="0.18" d="M740.9 62.5859H699.6V103.886H740.9V62.5859Z" fill="white"/>
<path opacity="0.18" d="M803.2 62.5859H761.9V103.886H803.2V62.5859Z" fill="white"/>
<path opacity="0.18" d="M865.5 62.5859H824.2V103.886H865.5V62.5859Z" fill="white"/>
<path opacity="0.29" d="M928.3 62.5859H887V103.886H928.3V62.5859Z" fill="white"/>
<path opacity="0.29" d="M990.1 62.5859H948.8V103.886H990.1V62.5859Z" fill="white"/>
<path opacity="0.5" d="M1052.3 62.5859H1011V103.886H1052.3V62.5859Z" fill="white"/>
<path opacity="0.5" d="M1364.3 124.886H1323V166.186H1364.3V124.886Z" fill="white"/>
<path opacity="0.34" d="M1114.7 62.5859H1073.4V103.886H1114.7V62.5859Z" fill="white"/>
<path opacity="0.41" d="M1177 62.5859H1135.7V103.886H1177V62.5859Z" fill="white"/>
<path opacity="0.26" d="M1239.3 62.5859H1198V103.886H1239.3V62.5859Z" fill="white"/>
<path opacity="0.04" d="M1301.6 62.5859H1260.3V103.886H1301.6V62.5859Z" fill="white"/>
<path d="M1364.3 62.5859H1323V103.886H1364.3V62.5859Z" fill="white"/>
<path d="M1426.2 62.5859H1384.9V103.886H1426.2V62.5859Z" fill="#F18888"/>
<path d="M928.3 124.886H887V166.186H928.3V124.886Z" fill="white"/>
<path d="M928.3 187.186H887V228.486H928.3V187.186Z" fill="#F18888"/>
<path opacity="0.48" d="M1239.3 124.886H1198V166.186H1239.3V124.886Z" fill="white"/>
<path opacity="0.05" d="M1239.3 187.186H1198V228.486H1239.3V187.186Z" fill="white"/>
</g>
<defs>
<clipPath id="clip0_45_131">
<rect width="1537" height="229" fill="white" transform="translate(-48)"/>
</clipPath>
</defs>
</svg>
