<svg width="350" height="46" viewBox="0 0 350 46" fill="none" xmlns="http://www.w3.org/2000/svg">
<path opacity="0.68" d="M350 45.2861H333.334L299.999 0.286133H316.665L350 45.2861Z" fill="#F18888"/>
<path opacity="0.52" d="M316.665 45.2861H299.999L266.667 0.286133H283.333L316.665 45.2861Z" fill="#F18888"/>
<path opacity="0.72" d="M283.333 45.2861H266.667L233.332 0.286133H249.998L283.333 45.2861Z" fill="#F18888"/>
<path opacity="0.73" d="M249.998 45.2861H233.332L200.001 0.286133H216.666L249.998 45.2861Z" fill="#F18888"/>
<path opacity="0.16" d="M216.666 45.2861H200.001L166.665 0.286133H183.335L216.666 45.2861Z" fill="#F18888"/>
<path opacity="0.95" d="M183.335 45.2861H166.665L133.334 0.286133H149.999L183.335 45.2861Z" fill="#F18888"/>
<path opacity="0.82" d="M149.999 45.2861H133.334L99.9983 0.286133H116.668L149.999 45.2861Z" fill="#F18888"/>
<path opacity="0.28" d="M116.668 45.2861H99.9983L66.6668 0.286133H83.3326L116.668 45.2861Z" fill="#F18888"/>
<path opacity="0.7" d="M83.3326 45.2861H66.6669L33.3354 0.286133H50.0011L83.3326 45.2861Z" fill="#F18888"/>
<path opacity="0.59" d="M50.0011 45.2861H33.3354L0 0.286133H16.6657L50.0011 45.2861Z" fill="#F18888"/>
<path opacity="0.44" d="M350 22.7861L333.334 0.286133H350V22.7861Z" fill="#F18888"/>
<path opacity="0.75" d="M0 45.2859H16.6657L0 22.7859V45.2859Z" fill="#F18888"/>
</svg>
