<svg width="265" height="239" viewBox="0 0 265 239" fill="none" xmlns="http://www.w3.org/2000/svg">
<path d="M264.5 200.728H64.5V0.786133H264.442V200.728H264.5ZM70.3241 194.904H258.618V6.61024H70.3241V194.904Z" fill="#F18888"/>
<path d="M67.412 3.64014V52.2133L115.985 3.64014H67.412Z" fill="#F18888"/>
<path d="M67.412 149.243V100.728L164.5 3.64014H213.015L67.412 149.243Z" fill="#F18888"/>
<path d="M164.5 100.728L261.588 3.64014V52.2133L115.985 197.816H67.412L164.5 100.728Z" fill="#F18888"/>
<path d="M164.5 197.816L261.588 100.728V149.243L213.015 197.816H164.5Z" fill="#F18888"/>
<path d="M197.531 238.728C197.357 238.728 197.124 238.728 196.949 238.669C196.775 238.611 196.6 238.553 196.425 238.495C196.251 238.436 196.076 238.32 195.902 238.204C195.727 238.087 195.611 237.971 195.436 237.855C194.912 237.331 194.563 236.574 194.563 235.817C194.563 235.643 194.563 235.41 194.621 235.235C194.679 235.061 194.737 234.886 194.796 234.711C194.854 234.537 194.97 234.362 195.087 234.187C195.203 234.013 195.32 233.896 195.436 233.722C195.552 233.605 195.727 233.489 195.902 233.372C196.076 233.256 196.251 233.198 196.425 233.081C196.6 233.023 196.775 232.965 196.949 232.907C197.299 232.849 197.706 232.849 198.113 232.907C198.288 232.965 198.463 233.023 198.637 233.081C198.812 233.14 198.987 233.256 199.161 233.372C199.336 233.489 199.452 233.605 199.627 233.722C199.743 233.838 199.86 234.013 199.976 234.187C200.092 234.362 200.151 234.537 200.267 234.711C200.325 234.886 200.384 235.061 200.442 235.235C200.5 235.41 200.5 235.584 200.5 235.817C200.5 236.574 200.209 237.331 199.627 237.855C199.51 237.971 199.336 238.087 199.161 238.204C198.987 238.32 198.812 238.378 198.637 238.495C198.463 238.553 198.288 238.611 198.113 238.669C197.881 238.669 197.706 238.728 197.531 238.728Z" fill="white"/>
<path d="M3.46862 44.6649C3.294 44.6649 3.06117 44.6651 2.88655 44.6069C2.71193 44.5487 2.53722 44.4903 2.3626 44.4321C2.18798 44.3739 2.01342 44.2575 1.83879 44.1411C1.66417 44.0247 1.54773 43.9082 1.37311 43.7918C0.849243 43.2679 0.5 42.5112 0.5 41.7545C0.5 41.5799 0.500057 41.3471 0.558264 41.1724C0.616471 40.9978 0.674707 40.8233 0.732914 40.6486C0.791121 40.474 0.907536 40.2995 1.02395 40.1248C1.14036 39.9502 1.25669 39.8339 1.37311 39.6593C1.48952 39.4847 1.66417 39.4264 1.83879 39.31C2.01342 39.1936 2.18798 39.1354 2.3626 39.019C2.53722 38.9607 2.71193 38.9024 2.88655 38.8442C3.81787 38.6695 4.8656 38.9608 5.50588 39.6593C5.62229 39.7757 5.73862 39.9502 5.85503 40.1248C5.97145 40.2995 6.02966 40.474 6.14607 40.6486C6.20428 40.8233 6.26251 40.9978 6.32072 41.1724C6.37893 41.3471 6.37898 41.5217 6.37898 41.7545C6.37898 42.5112 6.08795 43.2679 5.50588 43.7918C4.98201 44.3738 4.22532 44.6649 3.46862 44.6649Z" fill="white"/>
<path d="M3.46862 93.2097C2.71192 93.2097 1.95523 92.9187 1.43137 92.3366C0.267222 91.1725 0.267222 89.368 1.43137 88.2039L49.918 39.7171C51.0821 38.553 52.8865 38.553 54.0506 39.7171C55.2148 40.8812 55.2148 42.6857 54.0506 43.8499L5.56399 92.3366C4.98192 92.9187 4.22531 93.2097 3.46862 93.2097Z" fill="white"/>
<path d="M3.46862 141.696C2.71192 141.696 1.95523 141.405 1.43137 140.823C0.267222 139.659 0.267222 137.855 1.43137 136.69L98.4627 39.6592C99.6269 38.4951 101.431 38.4951 102.596 39.6592C103.76 40.8234 103.76 42.6276 102.596 43.7917L5.56399 140.823C4.98192 141.405 4.22531 141.696 3.46862 141.696Z" fill="white"/>
<path d="M3.46862 190.183C2.71192 190.183 1.95523 189.892 1.43137 189.31C0.267222 188.146 0.267222 186.341 1.43137 185.177L146.949 39.6592C148.114 38.4951 149.918 38.4951 151.082 39.6592C152.246 40.8234 152.246 42.6276 151.082 43.7917L5.56399 189.31C4.98192 189.892 4.22531 190.183 3.46862 190.183Z" fill="white"/>
<path d="M3.46862 238.728C2.71192 238.728 1.95523 238.437 1.43137 237.855C0.267222 236.691 0.267222 234.886 1.43137 233.722L195.436 39.7171C196.6 38.553 198.404 38.553 199.569 39.7171C200.733 40.8812 200.733 42.6857 199.569 43.8499L5.56399 237.855C4.98192 238.437 4.22531 238.728 3.46862 238.728Z" fill="white"/>
<path d="M52.0134 238.728C51.2567 238.728 50.5 238.437 49.9761 237.855C48.812 236.691 48.812 234.886 49.9761 233.722L195.494 88.2039C196.658 87.0398 198.463 87.0398 199.627 88.2039C200.791 89.3681 200.791 91.1725 199.627 92.3367L54.1089 237.855C53.4686 238.437 52.7119 238.728 52.0134 238.728Z" fill="white"/>
<path d="M100.5 238.728C99.7433 238.728 98.9866 238.437 98.4627 237.855C97.2986 236.691 97.2986 234.886 98.4627 233.722L195.494 136.69C196.658 135.526 198.463 135.526 199.627 136.69C200.791 137.855 200.791 139.659 199.627 140.823L102.596 237.855C102.013 238.437 101.257 238.728 100.5 238.728Z" fill="white"/>
<path d="M148.987 238.728C148.23 238.728 147.473 238.437 146.949 237.855C145.785 236.691 145.785 234.886 146.949 233.722L195.436 185.235C196.6 184.071 198.405 184.071 199.569 185.235C200.733 186.399 200.733 188.204 199.569 189.368L151.082 237.855C150.5 238.437 149.743 238.728 148.987 238.728Z" fill="white"/>
</svg>
