<svg width="50" height="51" viewBox="0 0 50 51" fill="none" xmlns="http://www.w3.org/2000/svg">
<path d="M45 25.2861C45 14.2393 36.0469 5.28613 25 5.28613C13.9531 5.28613 5 14.2393 5 25.2861C5 34.6611 11.4609 42.5361 20.1719 44.7002V31.3955H16.0469V25.2861H20.1719V22.6533C20.1719 15.8486 23.25 12.6924 29.9375 12.6924C31.2031 12.6924 33.3906 12.9424 34.2891 13.1924V18.7236C33.8203 18.6768 33 18.6455 31.9766 18.6455C28.6953 18.6455 27.4297 19.8877 27.4297 23.1143V25.2861H33.9609L32.8359 31.3955H27.4219V45.1377C37.3281 43.9424 45 35.5127 45 25.2861Z" fill="#F18888"/>
</svg>
