<svg width="50" height="51" viewBox="0 0 50 51" fill="none" xmlns="http://www.w3.org/2000/svg">
<path d="M25.0234 16.3018C20.0625 16.2861 16.0312 20.3018 16.0156 25.2627C16 30.2236 20.0156 34.2549 24.9766 34.2705C29.9375 34.2861 33.9688 30.2705 33.9844 25.3096C34 20.3486 29.9844 16.3174 25.0234 16.3018ZM24.9766 19.458C28.1953 19.4424 30.8125 22.0439 30.8281 25.2627C30.8438 28.4814 28.2422 31.0986 25.0234 31.1143C21.8047 31.1299 19.1875 28.5283 19.1719 25.3096C19.1562 22.0908 21.7578 19.4736 24.9766 19.458ZM32.2734 15.9346C32.2734 14.7783 33.2109 13.8408 34.3672 13.8408C35.5234 13.8408 36.4609 14.7783 36.4609 15.9346C36.4609 17.0908 35.5234 18.0283 34.3672 18.0283C33.2109 18.0283 32.2734 17.0908 32.2734 15.9346ZM42.4062 18.0596C42.2734 15.2549 41.6328 12.7705 39.5781 10.7236C37.5312 8.67676 35.0469 8.03613 32.2422 7.89551C29.3516 7.73145 20.6875 7.73145 17.7969 7.89551C15 8.02832 12.5156 8.66895 10.4609 10.7158C8.40625 12.7627 7.77344 15.2471 7.63281 18.0518C7.46875 20.9424 7.46875 29.6064 7.63281 32.4971C7.76562 35.3018 8.40625 37.7861 10.4609 39.833C12.5156 41.8799 14.9922 42.5205 17.7969 42.6611C20.6875 42.8252 29.3516 42.8252 32.2422 42.6611C35.0469 42.5283 37.5312 41.8877 39.5781 39.833C41.625 37.7861 42.2656 35.3018 42.4062 32.4971C42.5703 29.6064 42.5703 20.9502 42.4062 18.0596ZM38.6719 35.5986C38.0625 37.1299 36.8828 38.3096 35.3438 38.9268C33.0391 39.8408 27.5703 39.6299 25.0234 39.6299C22.4766 39.6299 17 39.833 14.7031 38.9268C13.1719 38.3174 11.9922 37.1377 11.375 35.5986C10.4609 33.2939 10.6719 27.8252 10.6719 25.2783C10.6719 22.7314 10.4688 17.2549 11.375 14.958C11.9844 13.4268 13.1641 12.2471 14.7031 11.6299C17.0078 10.7158 22.4766 10.9268 25.0234 10.9268C27.5703 10.9268 33.0469 10.7236 35.3438 11.6299C36.875 12.2393 38.0547 13.4189 38.6719 14.958C39.5859 17.2627 39.375 22.7314 39.375 25.2783C39.375 27.8252 39.5859 33.3018 38.6719 35.5986Z" fill="#F18888"/>
</svg>
