<svg width="50" height="51" viewBox="0 0 50 51" fill="none" xmlns="http://www.w3.org/2000/svg">
<path d="M25 5.91113C14.2969 5.91113 5.625 14.583 5.625 25.2861C5.625 35.9893 14.2969 44.6611 25 44.6611C35.7031 44.6611 44.375 35.9893 44.375 25.2861C44.375 14.583 35.7031 5.91113 25 5.91113ZM32.8672 34.4189C32.5391 34.4189 32.3359 34.3174 32.0312 34.1377C27.1562 31.2002 21.4844 31.0752 15.8828 32.2236C15.5781 32.3018 15.1797 32.4268 14.9531 32.4268C14.1953 32.4268 13.7188 31.8252 13.7188 31.1924C13.7188 30.3877 14.1953 30.0049 14.7812 29.8799C21.1797 28.4658 27.7188 28.5908 33.2969 31.9268C33.7734 32.2314 34.0547 32.5049 34.0547 33.2158C34.0547 33.9268 33.5 34.4189 32.8672 34.4189ZM34.9688 29.2939C34.5625 29.2939 34.2891 29.1143 34.0078 28.9658C29.125 26.0752 21.8438 24.9111 15.3672 26.6689C14.9922 26.7705 14.7891 26.8721 14.4375 26.8721C13.6016 26.8721 12.9219 26.1924 12.9219 25.3564C12.9219 24.5205 13.3281 23.9658 14.1328 23.7393C16.3047 23.1299 18.5234 22.6768 21.7734 22.6768C26.8438 22.6768 31.7422 23.9346 35.6016 26.2314C36.2344 26.6064 36.4844 27.0908 36.4844 27.7705C36.4766 28.6143 35.8203 29.2939 34.9688 29.2939ZM37.3906 23.3408C36.9844 23.3408 36.7344 23.2393 36.3828 23.0361C30.8203 19.7158 20.875 18.9189 14.4375 20.7158C14.1562 20.7939 13.8047 20.9189 13.4297 20.9189C12.3984 20.9189 11.6094 20.1143 11.6094 19.0752C11.6094 18.0127 12.2656 17.4111 12.9688 17.208C15.7188 16.4033 18.7969 16.0205 22.1484 16.0205C27.8516 16.0205 33.8281 17.208 38.1953 19.7549C38.8047 20.1064 39.2031 20.5908 39.2031 21.5205C39.2031 22.583 38.3438 23.3408 37.3906 23.3408Z" fill="#F18888"/>
</svg>
