<svg width="351" height="351" viewBox="0 0 351 351" fill="none" xmlns="http://www.w3.org/2000/svg">
<path d="M296.2 6.59912C301.967 0.770199 311.403 0.762222 317.246 6.60498L344.52 33.9468L344.527 33.9536C350.356 39.7207 350.364 49.1575 344.521 55.0005L311.709 87.812C310.308 89.2132 308.636 90.3367 306.801 91.0835L306.432 91.228L278.405 101.755L278.101 101.87L223.965 156.005L224.63 157.025C244.487 187.485 244.798 223.622 223.737 244.689C216.431 251.928 207.392 256.654 197.391 258.92L197.388 258.921C185.456 261.653 175.278 272.624 174.624 284.981V284.99C173.819 302.16 167.453 318.062 155.511 330.004C125.669 359.846 71.2698 354.451 33.9722 317.154C-3.32381 279.858 -8.65346 225.458 21.1899 195.615L21.189 195.614C33.1993 183.672 49.0348 177.375 66.2095 176.502L66.2134 176.501C78.5626 175.848 89.6091 165.678 92.2739 153.735C94.542 143.729 99.2012 134.693 106.5 127.394L106.502 127.392C127.5 106.329 163.705 106.637 194.169 126.496L195.19 127.161L196.05 126.299L249.028 73.2534L249.256 73.0239L249.371 72.7212L259.898 44.6938V44.6929C260.64 42.7136 261.818 40.9117 263.312 39.4175L263.313 39.4185L296.193 6.60596L296.2 6.59912ZM142.626 174.256C123.683 174.256 108.315 189.625 108.315 208.568C108.315 227.511 123.683 242.879 142.626 242.879C161.57 242.879 176.938 227.511 176.938 208.568C176.938 189.625 161.57 174.256 142.626 174.256Z" stroke="white" stroke-width="3"/>
</svg>
