<svg width="351" height="351" viewBox="0 0 351 351" fill="none" xmlns="http://www.w3.org/2000/svg">
<path d="M341.761 5.43094C347.303 9.87922 350.512 16.5881 350.512 23.6616V245.347C350.512 277.579 319.155 303.685 280.506 303.685C241.857 303.685 210.5 277.579 210.5 245.347C210.5 213.115 241.857 187.009 280.506 187.009C288.674 187.009 296.549 188.175 303.841 190.363V105.262L140.495 141.578V292.017C140.495 324.249 109.138 350.355 70.4887 350.355C31.8397 350.355 0.48291 324.249 0.48291 292.017C0.48291 259.785 31.8397 233.679 70.4887 233.679C78.6561 233.679 86.5317 234.846 93.824 237.034V70.3322C93.824 59.3938 101.408 49.9138 112.128 47.5803L322.145 0.909729C329.073 -0.621649 336.292 1.05557 341.834 5.50386L341.761 5.43094Z" fill="#F18888"/>
</svg>
