<svg width="351" height="351" viewBox="0 0 351 351" fill="none" xmlns="http://www.w3.org/2000/svg">
<path d="M322.728 2.37305C329.212 0.939827 335.967 2.51083 341.153 6.67383L341.16 6.66602C346.298 10.8296 349.27 17.0766 349.271 23.6611V245.347C349.271 276.505 318.853 302.185 280.765 302.185C242.676 302.185 212.259 276.505 212.259 245.347C212.259 214.188 242.676 188.509 280.765 188.509C288.79 188.509 296.52 189.655 303.669 191.8L305.6 192.379V103.392L303.774 103.798L140.428 140.113L139.253 140.375V292.018C139.253 323.176 108.836 348.855 70.7471 348.855C32.6584 348.855 2.2414 323.176 2.24121 292.018C2.24121 260.859 32.6583 235.179 70.7471 235.179C78.7722 235.179 86.5025 236.326 93.6514 238.471L95.582 239.05V70.332C95.5821 60.0952 102.679 51.2285 112.705 49.0459L112.711 49.0449L322.729 2.37402L322.728 2.37305Z" stroke="white" stroke-width="3"/>
</svg>
