<svg width="351" height="351" viewBox="0 0 351 351" fill="none" xmlns="http://www.w3.org/2000/svg">
<path d="M318.348 5.38004C311.922 -1.04562 301.532 -1.04562 295.174 5.38004L262.294 38.1919C260.653 39.8325 259.355 41.8149 258.534 44.0023L248.007 72.0292L195.03 125.075C164.2 104.978 127.15 104.431 105.481 126.169C97.9613 133.688 93.1762 142.985 90.852 153.239C88.3228 164.586 77.7957 174.224 66.1748 174.84C48.6751 175.728 32.4743 182.154 20.1698 194.39C-10.4546 225.015 -4.71252 280.385 32.9528 318.05C70.6181 355.715 125.988 361.526 156.612 330.901C168.849 318.665 175.343 302.396 176.163 284.896C176.778 273.275 186.417 262.817 197.764 260.219C208.018 257.895 217.314 253.041 224.834 245.59C246.572 223.852 246.025 186.871 225.928 156.041L278.973 102.995L307 92.4682C309.188 91.6479 311.17 90.3491 312.811 88.7085L345.623 55.8966C352.048 49.471 352.048 39.0806 345.623 32.7233L318.348 5.38004ZM142.667 175.592C160.782 175.592 175.479 190.289 175.479 208.403C175.479 226.518 160.782 241.215 142.667 241.215C124.553 241.215 109.856 226.518 109.856 208.403C109.856 190.289 124.553 175.592 142.667 175.592Z" fill="#F18888"/>
</svg>
