<svg width="50" height="50" viewBox="0 0 50 50" fill="none" xmlns="http://www.w3.org/2000/svg">
<path d="M36.7715 4.611C29.5017 0.415202 20.4837 0.415202 13.2139 4.611L12.4854 3.34353C20.1923 -1.11451 29.7785 -1.11451 37.5 3.34353L36.7715 4.611Z" fill="white"/>
<path d="M12.5 46.671C4.79312 42.2129 0 33.9233 0 25.0073H1.45687C1.45687 33.3989 5.97319 41.2077 13.2284 45.4035L12.5 46.671Z" fill="white"/>
<path d="M37.5 46.671L36.7715 45.4035C44.0413 41.2077 48.5431 33.3989 48.5431 25.0073H50C50.0145 33.9088 45.2214 42.2129 37.5 46.671Z" fill="white"/>
<path d="M25 25.7357C24.9563 25.7357 24.898 25.7357 24.8543 25.7211C24.8106 25.7065 24.7669 25.692 24.7232 25.6774C24.6795 25.6629 24.6358 25.6337 24.592 25.6046C24.5483 25.5754 24.5192 25.5463 24.4755 25.5171C24.4464 25.488 24.4172 25.4443 24.3881 25.4006C24.359 25.3569 24.3444 25.3132 24.3153 25.2695C24.3007 25.2258 24.2861 25.1821 24.2715 25.1383C24.257 25.0946 24.257 25.0364 24.257 24.9927C24.257 24.949 24.257 24.8907 24.2715 24.847C24.2861 24.8033 24.3007 24.7596 24.3153 24.7159C24.3298 24.6722 24.359 24.6285 24.3881 24.5848C24.4172 24.5411 24.4464 24.5119 24.4755 24.4682C24.5046 24.4391 24.5483 24.4099 24.592 24.3808C24.6358 24.3516 24.6795 24.3371 24.7232 24.3079C24.7669 24.2934 24.8106 24.2788 24.8543 24.2642C24.9563 24.2497 25.0437 24.2497 25.1457 24.2642C25.1894 24.2788 25.2331 24.2934 25.2768 24.3079C25.3205 24.3225 25.3642 24.3516 25.4079 24.3808C25.4516 24.4099 25.4808 24.4391 25.5245 24.4682C25.5536 24.4973 25.5827 24.5411 25.6119 24.5848C25.641 24.6285 25.6556 24.6722 25.6847 24.7159C25.6993 24.7596 25.7138 24.8033 25.7284 24.847C25.743 24.8907 25.743 24.9344 25.743 24.9927C25.743 25.0364 25.743 25.0801 25.7284 25.1383C25.7138 25.1821 25.6993 25.2258 25.6847 25.2695C25.6701 25.3132 25.641 25.3569 25.6119 25.4006C25.5827 25.4443 25.5536 25.4734 25.5245 25.5171C25.4953 25.5463 25.4516 25.5754 25.4079 25.6046C25.3642 25.6337 25.3205 25.6483 25.2768 25.6774C25.2331 25.692 25.1894 25.7065 25.1457 25.7211C25.0874 25.7357 25.0437 25.7357 25 25.7357Z" fill="white"/>
</svg>
