<svg width="50" height="771" viewBox="0 0 50 771" fill="none" xmlns="http://www.w3.org/2000/svg">
<g clip-path="url(#clip0_12_312)">
<g opacity="0.18">
<path d="M5.05316 8.19603L44.9468 8.19603" stroke="white" stroke-miterlimit="10" stroke-linecap="square"/>
</g>
<g opacity="0.08">
<path d="M5.05316 33.3581H44.9468" stroke="white" stroke-miterlimit="10" stroke-linecap="square"/>
</g>
<g opacity="0.18">
<path d="M5.05316 58.5241H44.9468" stroke="white" stroke-miterlimit="10" stroke-linecap="square"/>
</g>
<g opacity="0.09">
<path d="M5.05316 83.6862H44.9468" stroke="white" stroke-miterlimit="10" stroke-linecap="square"/>
</g>
<g opacity="0.24">
<path d="M5.05316 108.848H44.9468" stroke="white" stroke-miterlimit="10" stroke-linecap="square"/>
</g>
<g opacity="0.25">
<path d="M5.05316 134.014H44.9468" stroke="white" stroke-miterlimit="10" stroke-linecap="square"/>
</g>
<g opacity="0.06">
<path d="M5.05316 159.176H44.9468" stroke="white" stroke-miterlimit="10" stroke-linecap="square"/>
</g>
<g opacity="0.22">
<path d="M5.05316 184.339H44.9468" stroke="white" stroke-miterlimit="10" stroke-linecap="square"/>
</g>
<g opacity="0.07">
<path d="M5.05316 209.501H44.9468" stroke="white" stroke-miterlimit="10" stroke-linecap="square"/>
</g>
<g opacity="0.17">
<path d="M5.05316 234.667H44.9468" stroke="white" stroke-miterlimit="10" stroke-linecap="square"/>
</g>
<g opacity="0.18">
<path d="M5.05316 259.829H44.9468" stroke="white" stroke-miterlimit="10" stroke-linecap="square"/>
</g>
<g opacity="0.11">
<path d="M5.05316 284.991H44.9468" stroke="white" stroke-miterlimit="10" stroke-linecap="square"/>
</g>
<g opacity="0.21">
<path d="M5.05316 310.157H44.9468" stroke="white" stroke-miterlimit="10" stroke-linecap="square"/>
</g>
<g opacity="0.11">
<path d="M5.05316 335.319H44.9468" stroke="white" stroke-miterlimit="10" stroke-linecap="square"/>
</g>
<g opacity="0.12">
<path d="M5.05316 360.481H44.9468" stroke="white" stroke-miterlimit="10" stroke-linecap="square"/>
</g>
<g opacity="0.06">
<path d="M5.05316 385.643H44.9468" stroke="white" stroke-miterlimit="10" stroke-linecap="square"/>
</g>
<g opacity="0.17">
<path d="M5.05316 410.809H44.9468" stroke="white" stroke-miterlimit="10" stroke-linecap="square"/>
</g>
<g opacity="0.23">
<path d="M5.05316 435.971H44.9468" stroke="white" stroke-miterlimit="10" stroke-linecap="square"/>
</g>
<g opacity="0.06">
<path d="M5.05316 461.133H44.9468" stroke="white" stroke-miterlimit="10" stroke-linecap="square"/>
</g>
<g opacity="0.18">
<path d="M5.05316 486.299H44.9468" stroke="white" stroke-miterlimit="10" stroke-linecap="square"/>
</g>
<g opacity="0.23">
<path d="M5.05316 511.461H44.9468" stroke="white" stroke-miterlimit="10" stroke-linecap="square"/>
</g>
<g opacity="0.18">
<path d="M5.05316 536.623H44.9468" stroke="white" stroke-miterlimit="10" stroke-linecap="square"/>
</g>
<g opacity="0.15">
<path d="M5.05316 561.789H44.9468" stroke="white" stroke-miterlimit="10" stroke-linecap="square"/>
</g>
<g opacity="0.11">
<path d="M5.05316 586.952H44.9468" stroke="white" stroke-miterlimit="10" stroke-linecap="square"/>
</g>
<g opacity="0.21">
<path d="M5.05316 612.114H44.9468" stroke="white" stroke-miterlimit="10" stroke-linecap="square"/>
</g>
<g opacity="0.25">
<path d="M5.05316 637.276H44.9468" stroke="white" stroke-miterlimit="10" stroke-linecap="square"/>
</g>
<g opacity="0.11">
<path d="M5.05316 662.442H44.9468" stroke="white" stroke-miterlimit="10" stroke-linecap="square"/>
</g>
<g opacity="0.09">
<path d="M5.05316 687.604H44.9468" stroke="white" stroke-miterlimit="10" stroke-linecap="square"/>
</g>
<g opacity="0.18">
<path d="M5.05316 712.766H44.9468" stroke="white" stroke-miterlimit="10" stroke-linecap="square"/>
</g>
<g opacity="0.11">
<path d="M5.05316 737.932H44.9468" stroke="white" stroke-miterlimit="10" stroke-linecap="square"/>
</g>
<g opacity="0.17">
<path d="M5.05316 763.094H44.9468" stroke="white" stroke-miterlimit="10" stroke-linecap="square"/>
</g>
<path d="M5.05587 8.19205H19.4016" stroke="white" stroke-miterlimit="10" stroke-linecap="square"/>
<path d="M5.0558 33.3541H21.7952" stroke="white" stroke-miterlimit="10" stroke-linecap="square"/>
<path d="M5.0559 58.5202H29.4548" stroke="#F18888" stroke-miterlimit="10" stroke-linecap="square"/>
<path d="M5.05582 83.6823H28.9095" stroke="white" stroke-miterlimit="10" stroke-linecap="square"/>
<path d="M5.05589 108.844H25.8165" stroke="white" stroke-miterlimit="10" stroke-linecap="square"/>
<path d="M5.05588 134.006H20.9655" stroke="white" stroke-miterlimit="10" stroke-linecap="square"/>
<path d="M5.05588 159.172H20.7155" stroke="#F18888" stroke-miterlimit="10" stroke-linecap="square"/>
<path d="M5.05582 184.335H9.82178" stroke="white" stroke-miterlimit="10" stroke-linecap="square"/>
<path d="M5.05581 209.497H12.2712" stroke="white" stroke-miterlimit="10" stroke-linecap="square"/>
<path d="M5.05589 234.663H17.3671" stroke="#F18888" stroke-miterlimit="10" stroke-linecap="square"/>
<path d="M5.05582 259.825H28.6595" stroke="white" stroke-miterlimit="10" stroke-linecap="square"/>
<path d="M5.05591 284.987H11.3059" stroke="white" stroke-miterlimit="10" stroke-linecap="square"/>
<path d="M5.05588 310.153H27.5532" stroke="white" stroke-miterlimit="10" stroke-linecap="square"/>
<path d="M5.05591 335.315H21.2687" stroke="white" stroke-miterlimit="10" stroke-linecap="square"/>
<path d="M5.05581 360.477H9.73401" stroke="white" stroke-miterlimit="10" stroke-linecap="square"/>
<path d="M5.05588 385.643H22.5532" stroke="#F18888" stroke-miterlimit="10" stroke-linecap="square"/>
<path d="M5.05589 410.805H18.4415" stroke="white" stroke-miterlimit="10" stroke-linecap="square"/>
<path d="M5.0558 435.967H9.54517" stroke="#F18888" stroke-miterlimit="10" stroke-linecap="square"/>
<path d="M5.05586 461.129H9.52661" stroke="white" stroke-miterlimit="10" stroke-linecap="square"/>
<path d="M5.05582 486.295H25.1968" stroke="white" stroke-miterlimit="10" stroke-linecap="square"/>
<path d="M5.05587 511.457H28.0771" stroke="#F18888" stroke-miterlimit="10" stroke-linecap="square"/>
<path d="M5.05582 536.62H21.9468" stroke="white" stroke-miterlimit="10" stroke-linecap="square"/>
<path d="M5.05585 561.786H24.7872" stroke="white" stroke-miterlimit="10" stroke-linecap="square"/>
<path d="M5.05584 586.948H9.47339" stroke="white" stroke-miterlimit="10" stroke-linecap="square"/>
<path d="M5.0558 612.11H21.4574" stroke="white" stroke-miterlimit="10" stroke-linecap="square"/>
<path d="M5.05589 637.272H26.1038" stroke="#F18888" stroke-miterlimit="10" stroke-linecap="square"/>
<path d="M5.05586 662.438H12.6011" stroke="white" stroke-miterlimit="10" stroke-linecap="square"/>
<path d="M5.05588 687.6H23.5532" stroke="white" stroke-miterlimit="10" stroke-linecap="square"/>
<path d="M5.05585 712.762H28.875" stroke="#F18888" stroke-miterlimit="10" stroke-linecap="square"/>
<path d="M5.05588 737.928H10.2288" stroke="white" stroke-miterlimit="10" stroke-linecap="square"/>
<path d="M5.05583 763.09H16.7101" stroke="white" stroke-miterlimit="10" stroke-linecap="square"/>
</g>
<defs>
<clipPath id="clip0_12_312">
<rect width="770" height="50" fill="white" transform="matrix(0 1 -1 0 50 0.643036)"/>
</clipPath>
</defs>
</svg>
